# xmcd
#
# Track frame offsets: 
#        150
#        15301
#        24802
#        36311
#        51710
#        73349
#        93044
#        103871
#        127168
#        148787
#        165633
#        191087
#        209479
#
# Disc length: 3125 seconds
#
# Revision: 0
# Processed by: cddbd v1.5.1PL2 Copyright (c) Steve Scherf et al.
# Submitted via: ExactAudioCopy v0.95a5
#
DISCID=c00c330d
DTITLE=The Blasters - The Blasters Live: Going Home - Disc 1
DYEAR=2003
DGENRE=Blues
TTITLE0=Marie Marie
TTITLE1=Real Rock Drive
TTITLE2=Border Radio
TTITLE3=Crazy Baby
TTITLE4=Help You Dream
TTITLE5=Have Mercy Baby
TTITLE6=No Other Girl
TTITLE7=Don't You Lie To Me
TTITLE8=So Long Baby Goodbye
TTITLE9=Red Headed Woman
TTITLE10=Wandering Eye
TTITLE11=American Music
TTITLE12=One Bad Stud
EXTD=
EXTT0=
EXTT1=
EXTT2=
EXTT3=
EXTT4=
EXTT5=
EXTT6=
EXTT7=
EXTT8=
EXTT9=
EXTT10=
EXTT11=
EXTT12=
PLAYORDER=
